# xmcd CD database file
#
# Track frame offsets:
#	150
#	13533
#	32692
#	59348
#	74139
#	93328
#	113652
#	123893
#	147643
#	164201
#	183313
#	202950
#	223193
#
# Disc length: 3269 seconds
#
# Revision: 0
# Processed by: cddbd v1.5.2PL0 Copyright (c) Steve Scherf et al.
# Submitted via: CDex 1.51
#
DISCID=c50cc30d
DTITLE=Joanna Dark - Bar Nostalgia
DYEAR=2009
DGENRE=Jazz
TTITLE0=Dzis Bar Nostalgia
TTITLE1=Nie Szukaj Mnie
TTITLE2=Besame Mucho
TTITLE3=Amado Mio
TTITLE4=Poczekalnia PKP
TTITLE5=Stormy Weather
TTITLE6=You Don't Know
TTITLE7=God Bless The Child
TTITLE8=Ich Hab Noch Einen Koffer In Berlin
TTITLE9=Ich Bin Von Kopf Bis Fuss
TTITLE10=Juz Nigdy
TTITLE11=Nie Oczekuje Dzis Nikogo
TTITLE12=Don't Explain
EXTD=YEAR: 2009
EXTT0=
EXTT1=
EXTT2=
EXTT3=
EXTT4=
EXTT5=
EXTT6=
EXTT7=
EXTT8=
EXTT9=
EXTT10=
EXTT11=
EXTT12=
PLAYORDER=
